<svg width="141" height="24" viewBox="0 0 141 24" fill="none" xmlns="http://www.w3.org/2000/svg">
<g clip-path="url(#clip0)">
<path d="M14.875 19.3125H6.65625L5.09375 24H0.109375L8.57812 1.25H12.9219L21.4375 24H16.4531L14.875 19.3125ZM7.92188 15.5156H13.6094L10.75 7L7.92188 15.5156ZM41.5387 21.125C40.695 22.1354 39.5023 22.9219 37.9606 23.4844C36.419 24.0365 34.7106 24.3125 32.8356 24.3125C30.8669 24.3125 29.1377 23.8854 27.6481 23.0312C26.169 22.1667 25.0231 20.9167 24.2106 19.2812C23.4085 17.6458 22.9971 15.724 22.9762 13.5156V11.9688C22.9762 9.69792 23.3565 7.73438 24.1169 6.07812C24.8877 4.41146 25.9919 3.14062 27.4294 2.26562C28.8773 1.38021 30.57 0.9375 32.5075 0.9375C35.2054 0.9375 37.3148 1.58333 38.8356 2.875C40.3565 4.15625 41.2575 6.02604 41.5387 8.48438H36.9762C36.7679 7.18229 36.3044 6.22917 35.5856 5.625C34.8773 5.02083 33.8981 4.71875 32.6481 4.71875C31.0544 4.71875 29.8408 5.31771 29.0075 6.51562C28.1742 7.71354 27.7523 9.49479 27.7419 11.8594V13.3125C27.7419 15.6979 28.195 17.5 29.1012 18.7188C30.0075 19.9375 31.3356 20.5469 33.0856 20.5469C34.846 20.5469 36.1012 20.1719 36.8512 19.4219V15.5H32.5856V12.0469H41.5387V21.125ZM51.7962 1.25L57.64 17.75L63.4525 1.25H69.6087V24H64.9056V17.7812L65.3744 7.04688L59.2337 24H56.015L49.89 7.0625L50.3587 17.7812V24H45.6712V1.25H51.7962ZM87.71 14.1406H78.71V20.2344H89.2725V24H74.0225V1.25H89.2412V5.04688H78.71V10.4688H87.71V14.1406Z" fill="#E7E9E8"/>
</g>
<defs>
<clipPath id="clip0">
<rect width="141" height="30" fill="white" transform="translate(0 -6)"/>
</clipPath>
</defs>
</svg>
